<svg width="20" height="20" viewBox="0 0 20 20" fill="none" xmlns="http://www.w3.org/2000/svg">
<g clip-path="url(#clip0_57039_20446)">
<path d="M13.75 8.75C13.75 10.825 12.075 12.5 10 12.5C7.925 12.5 6.25 10.825 6.25 8.75C6.25 6.675 7.925 5 10 5C12.075 5 13.75 6.675 13.75 8.75Z" fill="#2A3A92"/>
<path fill-rule="evenodd" clip-rule="evenodd" d="M20 10C20 15.525 15.525 20 10 20C4.475 20 0 15.525 0 10C0 4.475 4.475 0 10 0C15.525 0 20 4.475 20 10ZM5 17.1875C5.2 16.855 7.1375 13.75 9.9875 13.75C12.825 13.75 14.775 16.8625 14.975 17.1875C16.1373 16.3837 17.087 15.3097 17.7424 14.0577C18.3978 12.8056 18.7393 11.4132 18.7375 10C18.7375 5.1625 14.825 1.25 9.9875 1.25C5.15 1.25 1.2375 5.1625 1.2375 10C1.2375 12.975 2.725 15.6125 5 17.1875Z" fill="#2A3A92"/>
</g>
<defs>
<clipPath id="clip0_57039_20446">
<rect width="20" height="20" fill="white"/>
</clipPath>
</defs>
</svg>
