<svg width="42" height="52" viewBox="0 0 42 52" fill="none" xmlns="http://www.w3.org/2000/svg">
<path d="M9.3815 0L16.9048 12.3266H1.85819L9.3815 0Z" fill="#639D11"/>
<path d="M9.56445 0H41.1946V51.4135L25.4709 41.9526L9.56445 51.4135V0Z" fill="#8EC73E"/>
<path d="M31.3496 15.7114C29.5566 14.4889 27.3425 15.0594 26.1471 16.4585C24.9518 15.0594 22.7376 14.4821 20.9446 15.7114C19.9938 16.3634 19.3961 17.4637 19.3553 18.6251C19.2603 21.2603 21.5966 23.3725 25.1623 26.6122L25.2302 26.6733C25.7464 27.1419 26.541 27.1419 27.0572 26.6665L27.1319 26.5986C30.6976 23.3657 33.0272 21.2535 32.9389 18.6183C32.8981 17.4637 32.3004 16.3634 31.3496 15.7114ZM26.215 25.6002L26.1471 25.6681L26.0792 25.6002C22.8463 22.673 20.7137 20.7373 20.7137 18.7745C20.7137 17.4161 21.7325 16.3974 23.0908 16.3974C24.1367 16.3974 25.1555 17.0698 25.5155 18.0002H26.7855C27.1387 17.0698 28.1575 16.3974 29.2034 16.3974C30.5617 16.3974 31.5805 17.4161 31.5805 18.7745C31.5805 20.7373 29.4479 22.673 26.215 25.6002Z" fill="white"/>
</svg>
